<svg width="594" height="642" viewBox="0 0 594 642" fill="none" xmlns="http://www.w3.org/2000/svg">
<g clip-path="url(#clip0)">
<path d="M416.021 281.001C451.696 281.001 480.616 252.081 480.616 216.406C480.616 180.731 451.696 151.811 416.021 151.811C380.346 151.811 351.426 180.731 351.426 216.406C351.426 252.081 380.346 281.001 416.021 281.001Z" fill="#FF6584"/>
<path d="M593.208 264.567C593.351 264.541 593.458 264.442 593.624 264.467C593.551 264.187 593.456 263.914 593.34 263.649C593.135 263.929 592.925 264.215 592.741 264.466L593.208 264.567Z" fill="white"/>
<path d="M159.961 369.289C160.338 383.382 162.698 397.352 166.973 410.786C167.071 411.098 167.173 411.405 167.275 411.716H193.445C193.417 411.437 193.389 411.126 193.361 410.786C191.616 390.726 181.556 268.637 193.584 247.759C192.533 249.452 157.932 305.551 159.961 369.289Z" fill="#E6E6E6"/>
<path d="M161.924 410.786C162.143 411.098 162.371 411.409 162.604 411.717H182.235C182.086 411.451 181.914 411.14 181.714 410.786C178.471 404.932 168.871 387.432 159.961 369.289C150.384 349.793 141.599 329.556 142.339 322.232C142.111 323.884 135.485 374.24 161.924 410.786Z" fill="#E6E6E6"/>
<path d="M365.924 414.142C365.595 426.428 363.537 438.607 359.81 450.319C359.725 450.591 359.636 450.859 359.547 451.13H336.732C336.756 450.887 336.781 450.615 336.805 450.319C338.326 432.831 347.097 326.392 336.61 308.189C337.527 309.666 367.693 358.573 365.924 414.142Z" fill="#E6E6E6"/>
<path d="M364.212 450.319C364.021 450.591 363.823 450.863 363.62 451.13H346.505C346.634 450.899 346.784 450.627 346.959 450.319C349.786 445.216 358.155 429.959 365.924 414.142C374.273 397.144 381.932 379.502 381.286 373.116C381.485 374.557 387.262 418.458 364.212 450.319Z" fill="#E6E6E6"/>
<path d="M105.065 52.4305L115.704 43.9209C107.439 43.009 104.043 47.5168 102.653 51.0847C96.1959 48.4034 89.1665 51.9173 89.1665 51.9173L110.454 59.6455C109.38 56.777 107.511 54.2742 105.065 52.4305Z" fill="#3F3D56"/>
<path d="M425.517 8.62871L436.156 0.119172C427.891 -0.792718 424.495 3.71501 423.105 7.28291C416.648 4.60164 409.618 8.11558 409.618 8.11558L430.906 15.8437C429.832 12.9753 427.962 10.4725 425.517 8.62871Z" fill="#3F3D56"/>
<path d="M582.057 345.141C582.057 352.191 581.811 359.185 581.32 366.12C577.53 420.838 558.557 473.416 526.533 517.945C522.348 523.786 517.953 529.463 513.35 534.976C501.422 549.282 488.178 562.438 473.792 574.27L410.735 537.269L373.034 449.274C373.034 449.274 429.286 335.379 581.957 337.444C582.02 340 582.054 342.566 582.057 345.141Z" fill="#3F3D56"/>
<path d="M581.32 366.12C578.419 407.009 567.074 446.853 548.002 483.138C528.929 519.422 502.543 551.36 470.508 576.935L411.927 542.564L378.492 464.522C378.492 464.522 432.67 354.829 581.32 366.12Z" fill="#6FFFE9"/>
<path d="M526.533 517.945C522.348 523.786 517.953 529.463 513.35 534.976C482.503 572.038 443.088 601.023 398.517 619.423C389.492 623.144 380.254 626.425 370.805 629.267C302.572 647.412 230.283 642.822 164.893 616.193C100.223 587.329 47.9625 536.352 17.4989 472.419C13.4049 463.813 9.72328 454.988 6.4541 445.945C63.4703 404.177 175.82 344.367 298.268 402.484C332.139 418.56 362.383 433.214 389 446.445C456.543 479.925 501.495 504.062 526.533 517.945Z" fill="#3F3D56"/>
<path d="M513.35 534.976C481.463 573.192 440.478 602.774 394.165 621.002C347.852 639.231 297.698 645.519 248.318 639.289C198.938 633.06 151.918 614.512 111.583 585.352C71.2488 556.192 38.8951 517.357 17.4989 472.419C65.117 434.763 174.946 367.094 295.475 424.292C326.471 439.003 354.144 452.413 378.492 464.522C449.474 499.704 493.198 523.613 513.35 534.976Z" fill="#6FFFE9"/>
<path d="M429.304 604.584C419.332 610.112 409.053 615.066 398.517 619.422C362.661 634.199 324.248 641.778 285.467 641.73C239.577 641.712 194.316 631.056 153.239 610.598C112.161 590.139 76.3862 560.437 48.7227 523.822C119.559 516.353 315.362 506.282 429.304 604.584Z" fill="#3F3D56"/>
<path d="M398.517 619.422C342.917 642.284 281.687 647.73 222.926 635.039C164.164 622.348 110.639 592.119 69.4294 548.35C95.1945 544.565 297.476 518.573 398.517 619.422Z" fill="#6FFFE9"/>
<path d="M532.31 180.669V180.679C320.53 24.0955 77.8904 134.307 76.0163 135.153V135.144C103.518 107.645 136.175 85.842 172.116 70.9829C208.057 56.1239 246.576 48.5009 285.467 48.5505C388.427 48.5505 479.133 101.018 532.31 180.669Z" fill="#E6E6E6"/>
<path d="M93.0023 350.89C128.829 344.431 147.187 279.935 134.007 206.835C120.828 133.735 81.1005 79.7121 45.2742 86.1714C9.44796 92.6308 -8.91068 157.126 4.26907 230.226C17.4488 303.326 57.176 357.349 93.0023 350.89Z" fill="#3F3D56"/>
<path d="M102.209 436.262C100.086 275.698 46.3631 125.018 45.821 123.516L40.9216 125.283C41.4611 126.778 94.8887 276.668 97.0016 436.332L102.209 436.262Z" fill="#6FFFE9"/>
<path d="M6.89548 200.366L5.29254 205.323L69.6088 226.123L71.2117 221.166L6.89548 200.366Z" fill="#6FFFE9"/>
<path d="M127.88 194.783L74.8875 236.751L78.1217 240.835L131.114 198.867L127.88 194.783Z" fill="#6FFFE9"/>
<path d="M265.268 327.742C304.661 327.742 336.595 262.584 336.595 182.208C336.595 101.831 304.661 36.6732 265.268 36.6732C225.876 36.6732 193.942 101.831 193.942 182.208C193.942 262.584 225.876 327.742 265.268 327.742Z" fill="#3F3D56"/>
<path d="M258.682 420.424C287.249 249.028 258.969 78.2511 258.68 76.5475L253.124 77.4888C253.411 79.1841 281.528 249.064 253.122 419.499L258.682 420.424Z" fill="#6FFFE9"/>
<path d="M202.472 150.913L199.814 155.884L264.312 190.383L266.97 185.412L202.472 150.913Z" fill="#6FFFE9"/>
<path d="M332.383 168.195L267.893 202.713L270.553 207.683L335.043 173.165L332.383 168.195Z" fill="#6FFFE9"/>
<path d="M575.088 280.928C548.918 266.235 521.577 253.735 493.344 243.554C337.234 187.065 182.434 208.837 121.842 289.68C168.996 190.641 337.252 159.499 507.045 220.937C526.807 228.081 546.147 236.343 564.971 245.683C569.072 257.21 572.451 268.981 575.088 280.928Z" fill="#E6E6E6"/>
<path d="M364.251 121.554L374.891 113.045C366.625 112.133 363.229 116.641 361.839 120.209C355.382 117.527 348.353 121.041 348.353 121.041L369.64 128.77C368.566 125.901 366.697 123.398 364.251 121.554Z" fill="#3F3D56"/>
</g>
<defs>
<clipPath id="clip0">
<rect width="593.624" height="641.73" fill="white"/>
</clipPath>
</defs>
</svg>
