<svg width="594" height="566" viewBox="0 0 594 566" fill="none" xmlns="http://www.w3.org/2000/svg">
<g clip-path="url(#clip0)">
<path d="M323.345 536.693C472.614 536.693 593.62 523.172 593.62 506.494C593.62 489.816 472.614 476.296 323.345 476.296C174.076 476.296 53.0696 489.816 53.0696 506.494C53.0696 523.172 174.076 536.693 323.345 536.693Z" fill="#3F3D56"/>
<path d="M457.386 473.08L462.047 487.441C462.047 487.441 484.496 510.634 476.377 516.921C468.257 523.207 450.041 490.068 450.041 490.068L446.684 473.854L457.386 473.08Z" fill="#FFB8B8"/>
<path d="M414.317 361.92L421.112 359.655C421.112 359.655 431.681 362.675 433.191 373.244C434.701 383.814 446.026 437.416 446.026 437.416C446.026 437.416 450.555 439.681 447.536 443.455C444.516 447.23 462.635 481.203 462.635 481.203L448.29 487.998C448.29 487.998 419.602 457.8 419.602 454.78C419.602 451.76 420.357 448.74 420.357 445.72C420.357 442.7 419.602 442.7 420.357 440.436C420.861 438.462 421.115 436.433 421.112 434.396L415.827 422.317L414.317 361.92Z" fill="#6FFFE9"/>
<path d="M68.2617 413.707C105.962 413.707 136.523 351.349 136.523 274.426C136.523 197.503 105.962 135.144 68.2617 135.144C30.5618 135.144 0 197.503 0 274.426C0 351.349 30.5618 413.707 68.2617 413.707Z" fill="#6FFFE9"/>
<path d="M67.635 275.87C71.04 215.242 77.9006 174.29 77.9696 173.883L76.4811 173.631C76.4121 174.038 69.5394 215.056 66.1288 275.762C62.9814 331.791 62.222 416.537 76.4807 502.089L77.97 501.841C63.7356 416.435 64.4931 331.817 67.635 275.87Z" fill="#3F3D56"/>
<path d="M129.272 246.18L67.5526 279.214L68.2652 280.545L129.985 247.511L129.272 246.18Z" fill="#3F3D56"/>
<path d="M3.10954 262.736L2.39734 264.068L64.1255 297.085L64.8377 295.754L3.10954 262.736Z" fill="#3F3D56"/>
<path d="M229.934 381.191C281.523 381.191 323.345 295.859 323.345 190.596C323.345 85.3326 281.523 0 229.934 0C178.345 0 136.523 85.3326 136.523 190.596C136.523 295.859 178.345 381.191 229.934 381.191Z" fill="#E6E6E6"/>
<path d="M228.799 192.548C233.46 109.57 242.85 53.5211 242.944 52.9644L241.456 52.7123C241.361 53.2693 231.959 109.384 227.293 192.44C222.986 269.097 221.948 385.043 241.455 502.089L242.945 501.841C223.461 384.94 224.499 269.123 228.799 192.548Z" fill="#3F3D56"/>
<path d="M313.553 152.188L229.095 197.393L229.808 198.724L314.266 153.519L313.553 152.188Z" fill="#3F3D56"/>
<path d="M140.648 174.845L139.935 176.176L224.406 221.358L225.118 220.026L140.648 174.845Z" fill="#3F3D56"/>
<path d="M152.118 455.461C171.393 455.461 187.018 423.579 187.018 384.25C187.018 344.921 171.393 313.038 152.118 313.038C132.843 313.038 117.217 344.921 117.217 384.25C117.217 423.579 132.843 455.461 152.118 455.461Z" fill="#E6E6E6"/>
<path d="M152.087 387.318L152.294 387.704L183.849 370.814L183.137 369.483L152.153 386.067C153.867 354.508 157.374 333.323 157.445 332.906L155.956 332.654C155.879 333.11 151.713 358.267 150.234 394.67L118.983 377.943L118.271 379.275L149.827 396.165L150.203 395.461C149.02 425.506 149.683 463.074 155.956 500.71L157.445 500.462C150.606 459.428 150.456 418.471 152.087 387.318Z" fill="#3F3D56"/>
<path d="M423.555 290.255C411.42 269.572 387.411 268.608 387.411 268.608C387.411 268.608 364.016 265.591 349.008 297.09C335.02 326.45 315.714 354.798 345.9 361.671L351.353 344.554L354.729 362.946C359.027 363.258 363.339 363.332 367.645 363.168C399.972 362.116 430.759 363.476 429.768 351.776C428.45 336.221 435.232 310.155 423.555 290.255Z" fill="#2F2E41"/>
<path d="M338.969 455.919C338.63 458.081 338.138 460.216 337.497 462.308C336.775 464.356 335.661 466.249 335.001 468.318C332.897 474.911 335.813 482.263 340.472 487.353C344.499 491.741 349.716 494.866 355.486 496.345C359.688 497.411 364.058 497.565 368.389 497.713C380.381 498.123 392.681 498.49 404.045 494.603C407.637 493.343 411.105 491.754 414.404 489.856C415.448 489.354 416.366 488.624 417.092 487.721C417.959 486.476 418.07 484.862 418.062 483.342C418.037 478.214 417.006 473.112 417.251 467.99C417.386 465.153 417.913 462.318 417.653 459.49C417.305 456.289 415.977 453.274 413.85 450.856C411.723 448.439 408.902 446.736 405.772 445.982C402.549 445.284 399.205 445.665 395.923 445.983C387.405 446.809 378.849 447.194 370.291 447.139C361.547 447.083 352.857 445.736 344.157 445.596C341.584 445.554 341.636 446.354 340.817 448.866C340.062 451.178 339.445 453.533 338.969 455.919Z" fill="#2F2E41"/>
<path d="M304.776 451.751C302.426 451.155 300.003 450.895 297.579 450.98C295.032 451.14 292.546 451.836 290.286 453.021C288.025 454.207 286.039 455.856 284.459 457.86C282.894 459.894 281.769 462.232 281.157 464.725C280.545 467.217 280.458 469.81 280.903 472.338C281.489 475.076 282.449 477.721 283.754 480.198C285.663 484.105 287.952 488.003 291.486 490.507C293.613 491.883 295.905 492.984 298.309 493.783L316.919 500.854C319.656 501.895 322.395 502.935 325.159 503.9C339.042 508.741 353.526 511.645 368.202 512.531C372.67 512.799 377.207 512.874 381.566 511.848C382.631 511.707 383.607 511.175 384.303 510.356C384.658 509.732 384.867 509.035 384.914 508.319L386.06 500.233C386.316 499.106 386.282 497.934 385.962 496.824C385.438 495.465 384.123 494.61 382.869 493.884C370.634 486.796 356.349 482.885 346.051 473.158C343.626 470.867 341.597 467.237 338.652 465.682C335.312 463.918 331.378 462.911 327.925 461.285C320.378 457.732 312.957 453.648 304.776 451.751Z" fill="#2F2E41"/>
<path opacity="0.1" d="M323.356 462.653C329.933 464.732 357.705 479.135 362.465 484.164C361.827 484.396 340.179 472.159 339.529 471.962C333.624 470.174 327.687 468.375 322.079 465.759C320.951 465.233 314.751 462.76 315.031 461.324C315.348 459.704 322.188 462.284 323.356 462.653Z" fill="black"/>
<path d="M405.418 516.725C405.792 516.752 406.163 516.642 406.461 516.415C406.592 516.245 406.689 516.05 406.744 515.842C406.8 515.635 406.815 515.418 406.787 515.205L406.756 504.188C403.616 502.679 400.102 502.195 396.654 501.73L380.565 499.561C380.935 499.611 378.049 506.551 378.492 507.477C379.272 509.11 385.23 510.558 386.912 511.329C392.759 514.009 398.834 516.956 405.418 516.725Z" fill="#FFB8B8"/>
<path d="M354.939 504.15C351.901 504.638 348.511 505.07 346.543 507.455C344.048 510.48 345.111 514.989 346.301 518.736C346.477 519.493 346.832 520.196 347.335 520.788C348.148 521.597 349.392 521.715 350.531 521.788C353.301 521.965 356.25 522.103 358.67 520.733C359.767 520.001 360.823 519.21 361.832 518.362C363.615 517.165 365.577 516.26 367.645 515.681C371.442 514.477 375.352 513.664 379.314 513.256C380.875 513.184 382.421 512.909 383.911 512.438C384.658 512.194 385.338 511.781 385.9 511.231C386.461 510.682 386.888 510.01 387.148 509.268C387.709 507.266 386.555 505.225 385.449 503.469C384.071 501.282 382.611 498.979 380.556 497.369C377.558 495.021 376.075 496.824 373.055 498.327C367.345 501.17 361.237 503.134 354.939 504.15Z" fill="#FFB8B8"/>
<path d="M347 506.91L327.712 501.16C325.399 500.347 322.981 499.875 320.534 499.757C318.087 499.758 315.528 500.567 313.942 502.446C312.446 504.216 312.018 506.636 311.645 508.932L310.847 513.842C310.315 516.319 310.165 518.861 310.401 521.383C310.765 523.885 312.032 526.385 314.233 527.596C316.902 529.065 320.173 528.347 323.152 527.733C329.168 526.492 335.289 525.83 341.431 525.756C343.74 525.728 346.161 525.757 348.201 524.666C350.627 523.37 352.077 520.629 352.327 517.872C352.706 513.677 351.32 508.198 347 506.91Z" fill="#2F2E41"/>
<path d="M413 501.899C415.501 501.457 417.708 500.024 420.104 499.178C423.476 497.987 427.131 497.987 430.704 498C432.016 498.005 433.413 498.034 434.504 498.768C436.078 499.825 436.482 501.94 436.749 503.828L438.364 515.219C438.668 517.361 438.97 519.561 438.496 521.672C438.022 523.783 436.596 525.818 434.519 526.363C431.997 527.024 429.524 525.399 427.143 524.331C421.19 521.663 414.271 522.345 408.065 520.351C406.913 519.981 405.679 519.415 405.209 518.291C404.997 517.658 404.921 516.987 404.987 516.323C405.094 512.661 404.328 507.662 405.421 504.162C406.404 501.015 410.209 501.899 413 501.899Z" fill="#2F2E41"/>
<path d="M453.819 447.166C457.672 446.192 461.669 445.916 465.619 446.353C468.773 446.704 472.023 447.589 474.326 449.791C477.13 452.472 478.03 456.617 478.105 460.512C478.232 468.261 475.683 475.816 470.888 481.904C469.72 483.438 468.329 484.789 466.761 485.911C465.073 486.976 463.273 487.851 461.392 488.521L419.716 505.101C408.752 509.463 397.749 513.838 386.313 516.713C386 516.865 385.659 516.952 385.312 516.97C384.964 516.988 384.617 516.935 384.29 516.816C383.963 516.696 383.663 516.512 383.409 516.274C383.155 516.037 382.951 515.75 382.81 515.432C379.156 510.167 376.093 504.515 373.676 498.579C373.567 498.389 373.5 498.178 373.479 497.96C373.459 497.743 373.486 497.523 373.558 497.317C373.711 497.087 373.923 496.904 374.173 496.788L403.651 479.704C405.815 478.566 407.83 477.165 409.651 475.535C410.926 474.287 411.97 472.822 412.731 471.209C413.342 469.922 413.399 466.884 414.18 465.932C414.944 465.001 417.558 464.927 418.765 464.56C420.469 464.034 422.136 463.398 423.757 462.657C430.351 459.681 436.223 455.358 442.545 451.874C446.087 449.831 449.876 448.249 453.819 447.166Z" fill="#2F2E41"/>
<path opacity="0.1" d="M437.108 459.925C432.044 463.761 425.486 467.288 420.467 471.226C418.754 472.57 390.197 488.764 389.793 490.914C394.476 491.71 424.305 470.661 428.573 468.561C432.841 466.461 436.624 463.499 440.373 460.559C441.329 459.81 445.378 457.557 442.635 456.72C441.09 456.249 438.249 459.158 437.108 459.925Z" fill="black"/>
<path d="M386.384 342.291C402.228 342.291 415.072 329.447 415.072 313.602C415.072 297.758 402.228 284.914 386.384 284.914C370.54 284.914 357.695 297.758 357.695 313.602C357.695 329.447 370.54 342.291 386.384 342.291Z" fill="#FFB8B8"/>
<path d="M398.463 337.761C398.463 337.761 393.933 349.085 402.238 353.615C410.543 358.145 376.569 394.383 376.569 394.383L361.47 350.595C361.47 350.595 374.305 346.066 372.04 333.986L398.463 337.761Z" fill="#FFB8B8"/>
<path d="M379.589 368.714L397.873 348.53L422.622 361.165L418.847 450.25L412.807 457.045C412.807 457.045 387.139 479.693 347.881 460.819C347.881 460.819 334.292 449.495 335.047 432.131C335.802 414.767 333.537 412.502 333.537 412.502L332.782 351.35L370.055 344.036L379.589 368.714Z" fill="#6FFFE9"/>
<path d="M295.753 464.775L291.092 479.137C291.092 479.137 268.643 502.329 276.762 508.616C284.881 514.902 303.098 481.763 303.098 481.763L306.455 465.55L295.753 464.775Z" fill="#FFB8B8"/>
<path d="M338.822 353.615L332.027 351.35C332.027 351.35 321.457 354.37 319.948 364.94C318.438 375.509 307.113 429.111 307.113 429.111C307.113 429.111 302.583 431.376 305.603 435.151C308.623 438.926 290.504 472.899 290.504 472.899L304.848 479.693C304.848 479.693 333.537 449.495 333.537 446.475C333.537 443.455 332.782 440.435 332.782 437.416C332.782 434.396 333.537 434.396 332.782 432.131C332.278 430.157 332.024 428.128 332.027 426.091L337.312 414.012L338.822 353.615Z" fill="#6FFFE9"/>
<path d="M418.19 288.261L394.47 275.729L361.715 280.855L354.938 311.047L371.808 310.392L376.521 299.301V310.209L384.305 309.907L388.823 292.249L391.647 311.047L419.32 310.477L418.19 288.261Z" fill="#2F2E41"/>
<path d="M250.046 482.479V526.025H117.037C117.038 514.476 121.626 503.401 129.792 495.234C137.959 487.068 149.034 482.48 160.583 482.479C173.055 478.591 187.475 477.353 203.118 477.761C217.877 478.138 233.724 479.988 250.046 482.479Z" fill="#FF6584"/>
<path d="M231.045 516.526H293.592C294.642 516.526 295.649 516.943 296.391 517.685C297.133 518.428 297.55 519.435 297.55 520.485C297.55 521.534 297.133 522.541 296.391 523.284C295.649 524.026 294.642 524.443 293.592 524.443H231.045V516.526Z" fill="#3F3D56"/>
<path d="M241.878 445.213L258.643 424.891C259.029 424.085 259.652 423.415 260.428 422.972C261.204 422.528 262.097 422.332 262.987 422.408C263.878 422.484 264.724 422.83 265.413 423.399C266.102 423.968 266.602 424.734 266.846 425.594L273.457 448.936L241.878 445.213Z" fill="#3F3D56"/>
<path d="M221.545 455.563L227.879 429.991C227.879 429.097 228.151 428.224 228.659 427.489C229.167 426.754 229.887 426.191 230.723 425.875C231.559 425.558 232.471 425.504 233.339 425.72C234.206 425.935 234.988 426.409 235.579 427.079L251.63 445.271L221.545 455.563Z" fill="#FF6584"/>
<path d="M117.037 526.027H129.704V552.945C129.704 554.609 129.377 556.256 128.74 557.793C128.103 559.33 127.17 560.726 125.994 561.903C124.818 563.079 123.421 564.012 121.884 564.649C120.347 565.285 118.7 565.613 117.037 565.613V526.027Z" fill="#FF6584"/>
<path d="M228.67 518.109H291.216C292.266 518.109 293.273 518.526 294.016 519.269C294.758 520.011 295.175 521.018 295.175 522.068C295.175 523.118 294.758 524.125 294.016 524.867C293.273 525.61 292.266 526.027 291.216 526.027H228.67V518.109Z" fill="#FF6584"/>
<path opacity="0.2" d="M250.046 482.479V525.784C243.62 526.466 237.123 525.684 231.043 523.495C224.963 521.307 219.458 517.769 214.942 513.147C210.425 508.525 207.015 502.94 204.967 496.811C202.919 490.682 202.287 484.169 203.118 477.761C217.877 478.138 233.724 479.988 250.046 482.479Z" fill="black"/>
<path d="M250.047 526.027C273.659 526.027 292.8 506.885 292.8 483.273C292.8 459.661 273.659 440.52 250.047 440.52C226.435 440.52 207.293 459.661 207.293 483.273C207.293 506.885 226.435 526.027 250.047 526.027Z" fill="#FF6584"/>
<path d="M291.217 497.524C293.84 497.524 295.967 492.562 295.967 486.44C295.967 480.318 293.84 475.356 291.217 475.356C288.593 475.356 286.466 480.318 286.466 486.44C286.466 492.562 288.593 497.524 291.217 497.524Z" fill="#3F3D56"/>
<path d="M279.736 477.731C280.392 477.731 280.924 476.49 280.924 474.96C280.924 473.43 280.392 472.189 279.736 472.189C279.081 472.189 278.549 473.43 278.549 474.96C278.549 476.49 279.081 477.731 279.736 477.731Z" fill="#3F3D56"/>
<path d="M288.446 472.189C289.101 472.189 289.633 470.949 289.633 469.418C289.633 467.888 289.101 466.647 288.446 466.647C287.79 466.647 287.258 467.888 287.258 469.418C287.258 470.949 287.79 472.189 288.446 472.189Z" fill="#3F3D56"/>
<path d="M246.46 440.044C246.46 440.044 244.084 435.911 244.084 433.389L246.46 440.044Z" fill="#3F3D56"/>
<path d="M247.505 437.371C247.505 437.371 248.8 432.782 250.603 431.019L247.505 437.371Z" fill="#3F3D56"/>
</g>
<defs>
<clipPath id="clip0">
<rect width="593.62" height="565.613" fill="white"/>
</clipPath>
</defs>
</svg>
