<svg width="40" height="44" viewBox="0 0 40 44" fill="none" xmlns="http://www.w3.org/2000/svg">
<path d="M1.42857 11.25H38.5714C39.3604 11.25 40 10.6395 40 9.88637V6.47728C40 5.72413 39.3604 5.11365 38.5714 5.11365H1.42857C0.639554 5.11365 0 5.72413 0 6.47728V9.88637C0 10.6395 0.639554 11.25 1.42857 11.25ZM1.42857 24.8864H38.5714C39.3604 24.8864 40 24.2759 40 23.5227V20.1136C40 19.3605 39.3604 18.75 38.5714 18.75H1.42857C0.639554 18.75 0 19.3605 0 20.1136V23.5227C0 24.2759 0.639554 24.8864 1.42857 24.8864ZM1.42857 38.5227H38.5714C39.3604 38.5227 40 37.9123 40 37.1591V33.75C40 32.9969 39.3604 32.3864 38.5714 32.3864H1.42857C0.639554 32.3864 0 32.9969 0 33.75V37.1591C0 37.9123 0.639554 38.5227 1.42857 38.5227Z" fill="white"/>
</svg>
