<svg width="34" height="34" viewBox="0 0 34 34" fill="none" xmlns="http://www.w3.org/2000/svg">
<path d="M20.0034 20.0035C19.6143 20.421 19.1451 20.7559 18.6237 20.9882C18.1024 21.2205 17.5396 21.3454 16.969 21.3555C16.3983 21.3655 15.8315 21.2606 15.3023 21.0468C14.7731 20.8331 14.2924 20.5149 13.8888 20.1113C13.4852 19.7078 13.1671 19.227 12.9533 18.6978C12.7396 18.1686 12.6346 17.6018 12.6447 17.0312C12.6547 16.4605 12.7796 15.8977 13.0119 15.3764C13.2442 14.8551 13.5791 14.3859 13.9967 13.9968M25.415 25.4151C22.9934 27.261 20.0446 28.2837 17 28.3335C7.08335 28.3335 1.41669 17.0001 1.41669 17.0001C3.17886 13.7161 5.62296 10.847 8.58502 8.58512L25.415 25.4151ZM14.025 6.00678C15.0002 5.77853 15.9985 5.66443 17 5.66678C26.9167 5.66678 32.5834 17.0001 32.5834 17.0001C31.7234 18.6089 30.6978 20.1235 29.5234 21.5193L14.025 6.00678Z" stroke="white" stroke-width="2" stroke-linecap="round" stroke-linejoin="round"/>
<path d="M1.41669 1.41675L32.5834 32.5834" stroke="white" stroke-width="2" stroke-linecap="round" stroke-linejoin="round"/>
</svg>
